<svg id="Capa_1" data-name="Capa 1" xmlns="http://www.w3.org/2000/svg" viewBox="0 0 299.8 378.61"><defs><style>.cls-1{fill:#c23133;}.cls-2{fill:#fffdf3;}</style></defs><title>reduced_logo</title><path class="cls-1" d="M348.88,459.33c-.09,2.85.08,5.67,1.75,8.13.49.72,1.15,1.46.42,2.19-2.55,2.55-5.85,1.89-8.94,1.77-2.4-.09-3.37-1.51-3.35-4,.1-9.25,0-18.5,0-28.15-13.27,12.64-23.92,12.08-32.28-1.54-3.77,6.15-8.65,10.4-16.25,10.51-7.44.11-12.6-3.24-15.86-10.15-.67,1.18-1.13,2.06-1.64,2.9-1.88,3.14-4.28,5.7-8.26,5.53-4.25-.18-7-2.69-8.76-6.44-1.13-2.4-1.95-5-3.87-6.93A3.69,3.69,0,0,0,247.8,432c-1.4.54-.83,2-.83,3a49.86,49.86,0,0,0,.31,8.48c.48,2.79.86,4.94-3,4.9-3.26,0-6.51.25-6.41-4.65.15-7.28,0-14.58,0-22.76-3.84,4.56-7.49,7.73-8.29,13.66-.86,6.33-4.24,12.7-11.23,13.91-8.16,1.41-14.83-2.51-19.83-9.69-.94,1.65-1.7,3.17-2.63,4.59-4.71,7.18-12,6.78-16-.89A25.79,25.79,0,0,1,177,431.07c-.08-5.66.11-11.32.18-17,0-1.44.51-3.09-1.84-3.3-2.18-.2-2.92,1-3.19,2.88-.68,4.94-1.32,9.9-2.22,14.8a24.18,24.18,0,0,1-2.13,5.54,1.7,1.7,0,0,1-2.12.86c-1-.32-1.07-1.24-.89-2.05,2.32-10.55,1.52-21.2,1.19-31.85-.1-3.4,2.67-3.85,5.18-4.15,3.11-.38,3.13,1.88,2.89,3.93-.37,3.12,1,4.3,3.95,4.12a16.64,16.64,0,0,1,2,.07c8.87.54,9.43,1.5,7.32,10.05-1.91,7.79-3,15.71-1.34,23.73.37,1.78.54,4,2.65,4.4s3.21-1.54,4-3.16a29.7,29.7,0,0,0,3.58-12.85,55.31,55.31,0,0,1,6.69-25.84c4.59-8.37,10.55-9.34,17.95-3.41,6,4.78,9.39,10.64,9.25,18.42a38.18,38.18,0,0,0,.41,4.5c3.43-2.08,7.34-8.66,7.34-12.71,0-13.16-.07-26.31-.39-39.46-.06-2.58,1-3.37,3-3.56a21.3,21.3,0,0,1,5.47.15c3.29.56,4.91,1.83,4.28,6A228.19,228.19,0,0,0,248,406.3c2.33-3.64,3.92-6.48,5.87-9.05,1.65-2.17,3.9-3.8,6.88-3.19,3.15.65,4.67,3,5.39,5.91,2.9,11.82-1.72,20.72-11.42,28.23,4.21,1.93,6.34,5.3,7.61,9.35a3.76,3.76,0,0,0,3.1,2.94c1.87.15,3-1.19,3.82-2.73,2.37-4.69,3.15-9.78,3.74-14.92.71-6.17,2.05-12.17,5.39-17.5,3.8-6,9.48-8.47,14.69-6.47,5.38,2.06,8,7.33,7.09,14.43-1.24,10-5.79,15.06-15.32,16.54-2.57.4-1.93,2-1.76,3.2.56,4,2.51,7.47,6.58,8.61a9.91,9.91,0,0,0,11.19-3.59c2.84-3.69,3.8-8.1,4.34-12.58.67-5.64,1.43-11.23,3.76-16.48a20.83,20.83,0,0,1,5-7.39c3.14-2.79,6.68-4.33,11-2.93s6.83,4.65,7.76,9a18.74,18.74,0,0,1-15.16,22.2c-2.05.32-2,1.29-1.9,2.63.26,4.4,2.36,7.7,6.5,9.21s9.16-.35,11.77-4.47a31,31,0,0,0,4.7-15.56c.29-8.79,1-17.65-.48-26.42-.42-2.54,1-3.1,2.86-3.81,2.25-.89,3.89-.32,5.05,1.7A9.33,9.33,0,0,1,347,398c0,4.31,0,8.61,0,14.14,1.6-3.79,2.49-6.59,3.88-9.11,3.81-6.9,11-7.36,15.8-1.06,3.45,4.55,4.41,10,5,15.49.83,8.08.21,16.06-3.91,23.25-4.24,7.39-12.21,8.69-17.94,3.25-.63-1.85-.84-3.69,1.15-4.78,1.82-1,2.52.75,3.6,1.71,3,2.63,5.19.93,6-1.9a61.38,61.38,0,0,0,.85-31.41,4,4,0,0,0-3.22-3.42c-1.83-.25-3.16,1-4,2.45a29.88,29.88,0,0,0-2.26,4.95c-2.29,6.47-3.05,13.26-3.43,20C347.93,440.83,347.21,450.11,348.88,459.33ZM223.37,418c-.32-2.47-.56-4.94-1-7.39a21.38,21.38,0,0,0-1.24-4.28c-2.32-5.65-6.22-6.19-10-1.28a20.22,20.22,0,0,0-4.15,13c.14,6.14,3,8.93,9,8.71C222.44,426.5,223.57,425.13,223.37,418Zm36.7-9.17c-.57-2,1.12-5.72-2.09-6.6s-4.69,2.48-6.14,4.85c-2.64,4.33-3.76,9.18-4.42,14.13-.2,1.52-1.12,3.5.76,4.5,1.57.84,3.27,0,4.66-.92C258.4,421,259.83,415.38,260.07,408.78Zm34.52,1c0-1.12.34-3.19-1.91-3.93s-3.42.83-4.49,2.36c-2.53,3.63-3.5,7.85-4.1,12.13-.21,1.45-1.1,3.56,1.05,4.33,1.91.69,3.58-.4,4.85-1.81C293.13,419.38,294,415,294.59,409.82Zm32.46.8c-.1-2,.42-4.17-2-4.77-2.14-.54-3.37,1-4.42,2.53-2.37,3.53-3.29,7.56-4,11.67-.28,1.62-1.07,3.58.72,4.52,2,1.05,3.87-.2,5.24-1.79C325.64,419.22,326.62,414.88,327.05,410.62ZM206.4,431.74c-.79,5.9,1.14,9.2,5.64,9.89,5.23.81,9.47-3,10.32-9.55C217,433.61,211.63,434.15,206.4,431.74Z" transform="translate(-112.94 -113.08)"/><path class="cls-1" d="M151,432.34c-17.17,12.25-34.61,4-37.57-17.87-1.8-13.34,1.69-25.85,11-36.09,7.94-8.73,15.74-9.53,25.63-3.13,8.43,5.45,10,9,7.93,17.75-.61,2.57-1.88,4.65-4.46,5.61-3.83,1.42-6.68-.55-6.64-4.62,0-2.33.32-4.65.43-7,.34-7.58-4.4-10.59-11.31-7.21a13.48,13.48,0,0,0-6.25,6.25c-5.54,11.21-6.2,23-3.44,35a12.8,12.8,0,0,0,5.33,7.65c3.74,2.57,7.84,4,12.18,1.82,4-2,5.22-5.85,5.23-10.09a18.35,18.35,0,0,1,1-6.87c1.49-3.67,7.07-5,10.2-2.6,1.67,1.28.48,2.3,0,3.43-2.29,5.4-3,11-1.1,16.57,7.35,21.65-7.41,33.15-28.91,30.52-3.64-.44-7.25-1.28-10.08-3.89-2.56-2.36-3.64-5.16-2.08-8.52,1-2.09,2.84-2.72,5-2.51,1.26.12,2.71.06,3,1.95.88,6.16,5.19,7.51,10.54,7.41,6.89-.13,11.32-2.81,13.47-8.32a10.54,10.54,0,0,0,.89-3.35C151,440.43,151,436.62,151,432.34Z" transform="translate(-112.94 -113.08)"/><path class="cls-1" d="M399,434c-1.27,3-2,4.83-2.77,6.58-1.57,3.35-3.22,7.34-7.57,6.81-4.51-.54-8.58-2.92-10.49-7.47a24.35,24.35,0,0,1-1.56-6.77,119.87,119.87,0,0,1,.81-31.83c1-6,3.56-7.07,9.11-4.44,2.72,1.29,4,2.63,1.52,5.53-1.64,1.92-1.72,4.67-1.88,7.13a190.57,190.57,0,0,0-.12,24.95c.14,2.11.12,4.86,2.58,5.45,2.89.69,3.9-2.11,4.81-4.16,3.89-8.76,5-18.21,6.56-27.54.88-5.3,3.31-6.61,8-4a2.55,2.55,0,0,1,1.52,2.69c-.3,10.29.45,20.69-.83,30.84-.54,4.31,6.86,5.81,2.86,8.48-4.58,3.07-1.93,6.49-2.33,9.59-.61,4.75-.19,9.63-.19,14.46,0,7.57-2.08,13.62-9.19,18-3.91,2.43-6.74,4.39-11.52,2.72-6.18-2.14-8.4-4.68-7.86-11.35.92-11.4,5.66-21.1,13.44-29.33C399.87,444.08,399.94,444.15,399,434Zm.39,17c-6.74,6.59-9.49,13.63-11.3,21.1-.74,3.05-1.41,6.2-.83,9.37.46,2.45,1,5.08,4.14,5.49,2.87.37,4.05-1.83,5.19-3.87a12,12,0,0,0,1.06-2.78C399.94,471,399.4,461.58,399.37,450.91Z" transform="translate(-112.94 -113.08)"/><circle class="cls-1" cx="162.71" cy="61.36" r="61.36"/><path class="cls-2" d="M289.6,190.33c-17.17,12.25-34.61,4-37.57-17.87-1.8-13.34,1.69-25.85,11-36.09,7.94-8.73,15.74-9.53,25.63-3.13,8.43,5.45,10,9,7.93,17.75-.61,2.57-1.88,4.65-4.46,5.61-3.83,1.42-6.68-.55-6.64-4.62,0-2.33.32-4.65.43-7,.34-7.58-4.4-10.59-11.31-7.21a13.48,13.48,0,0,0-6.25,6.25c-5.54,11.21-6.2,23-3.44,35a12.75,12.75,0,0,0,5.33,7.64c3.74,2.58,7.84,4.05,12.18,1.83,4-2,5.22-5.85,5.23-10.09a18.35,18.35,0,0,1,1-6.87c1.49-3.67,7.06-5,10.2-2.6,1.67,1.28.48,2.3,0,3.43-2.29,5.4-3,11-1.1,16.57,7.35,21.65-7.41,33.15-28.91,30.52-3.64-.44-7.25-1.28-10.08-3.89-2.57-2.36-3.64-5.16-2.08-8.52,1-2.09,2.84-2.72,5-2.51,1.26.12,2.71.06,3,2,.88,6.16,5.19,7.51,10.54,7.41,6.89-.13,11.32-2.81,13.47-8.32a10.54,10.54,0,0,0,.89-3.35C289.67,198.42,289.6,194.61,289.6,190.33Z" transform="translate(-112.94 -113.08)"/></svg>