<svg xmlns="http://www.w3.org/2000/svg" viewBox="0 0 122.71 122.71"><defs><style>.cls-1{fill:#c23133;}.cls-2{fill:#fffdf3;}</style></defs><title>Recurso 1</title><g id="Capa_2" data-name="Capa 2"><g id="Capa_1-2" data-name="Capa 1"><circle class="cls-1" cx="61.36" cy="61.36" r="61.36"/><path class="cls-2" d="M75.31,77.26c-17.17,12.24-34.62,4-37.57-17.87-1.81-13.35,1.69-25.86,11-36.1,7.93-8.72,15.73-9.53,25.62-3.13,8.43,5.46,10,9,7.94,17.75-.61,2.57-1.89,4.65-4.46,5.61C74,45,71.15,43,71.19,38.9c0-2.33.33-4.65.43-7,.35-7.58-4.39-10.59-11.3-7.21A13.5,13.5,0,0,0,54.06,31c-5.53,11.21-6.2,23-3.43,35A12.76,12.76,0,0,0,56,73.6c3.75,2.57,7.85,4,12.18,1.82,4-2,5.22-5.85,5.24-10.08a18.17,18.17,0,0,1,1-6.88c1.48-3.67,7.06-5,10.2-2.59,1.66,1.27.47,2.29,0,3.43-2.29,5.39-3,11-1.1,16.57,7.35,21.65-7.42,33.15-28.91,30.52-3.64-.45-7.25-1.29-10.09-3.9-2.56-2.35-3.63-5.16-2.07-8.51,1-2.1,2.84-2.73,5-2.52,1.26.12,2.71.06,3,2,.89,6.16,5.2,7.51,10.54,7.41,6.9-.12,11.32-2.81,13.47-8.31a10.4,10.4,0,0,0,.89-3.36C75.37,85.34,75.31,81.53,75.31,77.26Z"/></g></g></svg>